HIERARCHY
ROOT Hips
{
  OFFSET 5.84602e-005 68.8428 3.50346
  CHANNELS 6 Xposition Yposition Zposition Zrotation Xrotation Yrotation
  JOINT Spine
  {
    OFFSET 0 8.597 -4.6522
    CHANNELS 3 Zrotation Xrotation Yrotation
    JOINT Spine1
    {
      OFFSET 0 7.8454 0.4098
      CHANNELS 3 Zrotation Xrotation Yrotation
      JOINT Spine2
      {
        OFFSET 0 9.7078 -2.1609
        CHANNELS 3 Zrotation Xrotation Yrotation
        JOINT Neck
        {
          OFFSET 0 21.8761 -0.4549
          CHANNELS 3 Zrotation Xrotation Yrotation
          JOINT Head
          {
            OFFSET 0 12.3537 3.3602
            CHANNELS 3 Zrotation Xrotation Yrotation
            End Site
            {
              OFFSET 0.0001 18.9506 0.5657
            }
          }
        }
        JOINT LeftShoulder
        {
          OFFSET 2.2086 21.1115 7.2329
          CHANNELS 3 Zrotation Xrotation Yrotation
          JOINT LeftArm
          {
            OFFSET 13.1193 3.0282 -4.8998
            CHANNELS 3 Zrotation Xrotation Yrotation
            JOINT LeftForeArm
            {
              OFFSET 27.4081 -0.0973053 -0.2375
              CHANNELS 3 Zrotation Xrotation Yrotation
              JOINT LeftHand
              {
                OFFSET 22.8641 0.0662994 -0.1369
                CHANNELS 3 Zrotation Xrotation Yrotation
                JOINT LeftHandIndex1
                {
                  OFFSET 8.8614 0.775009 2.4612
                  CHANNELS 3 Zrotation Xrotation Yrotation
                  JOINT LeftHandIndex2
                  {
                    OFFSET 3.3146 -0.808304 0.5841
                    CHANNELS 3 Zrotation Xrotation Yrotation
                    JOINT LeftHandIndex3
                    {
                      OFFSET 2.2628 -0.552002 0.3989
                      CHANNELS 3 Zrotation Xrotation Yrotation
                      End Site
                      {
                        OFFSET 1.6102 -0.4807 0.2612
                      }
                    }
                  }
                }
                JOINT LeftHandMiddle1
                {
                  OFFSET 8.9937 0.895004 0.2143
                  CHANNELS 3 Zrotation Xrotation Yrotation
                  JOINT LeftHandMiddle2
                  {
                    OFFSET 4.0984 0.0113983 -0.0242
                    CHANNELS 3 Zrotation Xrotation Yrotation
                    JOINT LeftHandMiddle3
                    {
                      OFFSET 2.2716 0.00689697 -0.0138001
                      CHANNELS 3 Zrotation Xrotation Yrotation
                      End Site
                      {
                        OFFSET 2.0404 -0.1441 0.0027
                      }
                    }
                  }
                }
                JOINT LeftHandRing1
                {
                  OFFSET 8.5234 0.597198 -2.0164
                  CHANNELS 3 Zrotation Xrotation Yrotation
                  JOINT LeftHandRing2
                  {
                    OFFSET 3.7188 -0.188293 -0.2328
                    CHANNELS 3 Zrotation Xrotation Yrotation
                    JOINT LeftHandRing3
                    {
                      OFFSET 2.1191 -0.106598 -0.1332
                      CHANNELS 3 Zrotation Xrotation Yrotation
                      End Site
                      {
                        OFFSET 1.8737 -0.2304 -0.0886
                      }
                    }
                  }
                }
                JOINT LeftHandPinky1
                {
                  OFFSET 7.9094 -0.601089 -3.4825
                  CHANNELS 3 Zrotation Xrotation Yrotation
                  JOINT LeftHandPinky2
                  {
                    OFFSET 2.2874 -0.477005 -0.6314
                    CHANNELS 3 Zrotation Xrotation Yrotation
                    JOINT LeftHandPinky3
                    {
                      OFFSET 1.6774 -0.349396 -0.4633
                      CHANNELS 3 Zrotation Xrotation Yrotation
                      End Site
                      {
                        OFFSET 1.4888 -0.4091 -0.3416
                      }
                    }
                  }
                }
                JOINT LeftHandThumb1
                {
                  OFFSET 1.833 -1.3875 1.3896
                  CHANNELS 3 Zrotation Xrotation Yrotation
                  JOINT LeftHandThumb2
                  {
                    OFFSET 3.4129 -1.121 2.5732
                    CHANNELS 3 Zrotation Xrotation Yrotation
                    JOINT LeftHandThumb3
                    {
                      OFFSET 2.2474 -0.804199 1.6192
                      CHANNELS 3 Zrotation Xrotation Yrotation
                      End Site
                      {
                        OFFSET 1.6527 -0.5689 1.1317
                      }
                    }
                  }
                }
              }
            }
          }
        }
        JOINT RightShoulder
        {
          OFFSET -2.2086 21.1115 7.2329
          CHANNELS 3 Zrotation Xrotation Yrotation
          JOINT RightArm
          {
            OFFSET -13.1216 3.0287 -4.9007
            CHANNELS 3 Zrotation Xrotation Yrotation
            JOINT RightForeArm
            {
              OFFSET -27.4081 -0.0973053 -0.2375
              CHANNELS 3 Zrotation Xrotation Yrotation
              JOINT RightHand
              {
                OFFSET -22.8641 0.0664063 -0.1369
                CHANNELS 3 Zrotation Xrotation Yrotation
                JOINT RightHandIndex1
                {
                  OFFSET -8.8614 0.774994 2.4612
                  CHANNELS 3 Zrotation Xrotation Yrotation
                  JOINT RightHandIndex2
                  {
                    OFFSET -3.3146 -0.808304 0.5841
                    CHANNELS 3 Zrotation Xrotation Yrotation
                    JOINT RightHandIndex3
                    {
                      OFFSET -2.2628 -0.552002 0.3989
                      CHANNELS 3 Zrotation Xrotation Yrotation
                      End Site
                      {
                        OFFSET -1.6102 -0.4807 0.2612
                      }
                    }
                  }
                }
                JOINT RightHandMiddle1
                {
                  OFFSET -8.9937 0.894989 0.2143
                  CHANNELS 3 Zrotation Xrotation Yrotation
                  JOINT RightHandMiddle2
                  {
                    OFFSET -4.0984 0.0113983 -0.0242
                    CHANNELS 3 Zrotation Xrotation Yrotation
                    JOINT RightHandMiddle3
                    {
                      OFFSET -2.2716 0.00691223 -0.0138001
                      CHANNELS 3 Zrotation Xrotation Yrotation
                      End Site
                      {
                        OFFSET -2.0404 -0.1441 0.0027
                      }
                    }
                  }
                }
                JOINT RightHandRing1
                {
                  OFFSET -8.5234 0.597198 -2.0164
                  CHANNELS 3 Zrotation Xrotation Yrotation
                  JOINT RightHandRing2
                  {
                    OFFSET -3.7188 -0.188309 -0.2328
                    CHANNELS 3 Zrotation Xrotation Yrotation
                    JOINT RightHandRing3
                    {
                      OFFSET -2.1191 -0.106598 -0.1332
                      CHANNELS 3 Zrotation Xrotation Yrotation
                      End Site
                      {
                        OFFSET -1.8737 -0.2304 -0.0886
                      }
                    }
                  }
                }
                JOINT RightHandPinky1
                {
                  OFFSET -7.9094 -0.601105 -3.4825
                  CHANNELS 3 Zrotation Xrotation Yrotation
                  JOINT RightHandPinky2
                  {
                    OFFSET -2.2874 -0.477005 -0.6314
                    CHANNELS 3 Zrotation Xrotation Yrotation
                    JOINT RightHandPinky3
                    {
                      OFFSET -1.6774 -0.349396 -0.4633
                      CHANNELS 3 Zrotation Xrotation Yrotation
                      End Site
                      {
                        OFFSET -1.4888 -0.4091 -0.3416
                      }
                    }
                  }
                }
                JOINT RightHandThumb1
                {
                  OFFSET -1.833 -1.38751 1.3896
                  CHANNELS 3 Zrotation Xrotation Yrotation
                  JOINT RightHandThumb2
                  {
                    OFFSET -3.41299 -1.12099 2.5732
                    CHANNELS 3 Zrotation Xrotation Yrotation
                    JOINT RightHandThumb3
                    {
                      OFFSET -2.24741 -0.804108 1.6192
                      CHANNELS 3 Zrotation Xrotation Yrotation
                      End Site
                      {
                        OFFSET -1.6527 -0.5689 1.1317
                      }
                    }
                  }
                }
              }
            }
          }
        }
      }
    }
  }
  JOINT RightUpLeg
  {
    OFFSET -9.1966 3.8861 -0.7581
    CHANNELS 3 Zrotation Xrotation Yrotation
    JOINT RightLeg
    {
      OFFSET -0.7359 -41.0265 0
      CHANNELS 3 Zrotation Xrotation Yrotation
      JOINT RightFoot
      {
        OFFSET 0 -40.2855 0
        CHANNELS 3 Zrotation Xrotation Yrotation
        JOINT RightToeBase
        {
          OFFSET 0 -5.6122 11.7359
          CHANNELS 3 Zrotation Xrotation Yrotation
          End Site
          {
            OFFSET 0 0 7.8731
          }
        }
      }
    }
  }
  JOINT LeftUpLeg
  {
    OFFSET 9.1965 3.8864 -0.7581
    CHANNELS 3 Zrotation Xrotation Yrotation
    JOINT LeftLeg
    {
      OFFSET 0.7359 -41.0268 0
      CHANNELS 3 Zrotation Xrotation Yrotation
      JOINT LeftFoot
      {
        OFFSET 0 -40.2855 0
        CHANNELS 3 Zrotation Xrotation Yrotation
        JOINT LeftToeBase
        {
          OFFSET 0 -5.6122 11.7359
          CHANNELS 3 Zrotation Xrotation Yrotation
          End Site
          {
            OFFSET 0 0 7.8731
          }
        }
      }
    }
  }
}
MOTION
Frames:	7
Frame Time:	0.0333333
5.84602e-005 68.8428 3.50346 0 0 -0 0 0 -0 0 0 -0 0 0 -0 0 0 -0 0 0 -0 0 0 -0 0 0 -0 0 0 -0 0 0 -0 0 0 -0 0 0 -0 0 0 -0 0 0 -0 -0.0146107 -8.87603e-005 -2.63497e-007 2.99804e-018 -2.42657e-020 -1.42182e-022 0 0 -0 -0.0187562 -0.001176 5.858e-005 5.06224e-018 3.88251e-019 1.21329e-020 0 0 -0 -0.012269 -0.00324817 0.000675346 -1.74678e-018 3.88251e-019 -0 0 0 -0 0 0 -0 0 0 -0 0 0 -0 0 0 -0 0 0 -0 0 0 -0 0 0 -0 0 0 -0 0 0 -0 0 0 -0 0.0149955 -9.10982e-005 2.64101e-007 -9.69331e-018 1.21329e-020 -4.7394e-023 0 0 -0 0.0189956 -0.00119102 -5.96516e-005 -5.41541e-019 0 2.42657e-020 0 0 -0 0.0122698 -0.00324857 -0.000673756 -2.00796e-019 0 -1.94126e-019 0 0 -0 0 0 -0 0 0 -0 3.39842 1.33031 -0.0637918 -5.65207e-008 0.834868 -0.000436188 -3.39935 -2.16518 -0.0642563 -8.89002e-024 -1.18485e-023 -1.48106e-024 -3.39844 1.35642 0.0640283 -3.18788e-007 0.782166 -0.000588827 3.39931 -2.13858 0.0634662 1.1399e-023 0 -0 
5.38424e-005 5.98085 -12.6843 0 3.99975 -0 6.66463e-015 15.7991 4.94047e-016 -4.83738e-022 31.598 -1.58236e-022 -3.18961e-022 31.598 8.70391e-023 -1.96803e-020 -27.0005 7.01519e-021 -2.98853e-022 -12.0013 -2.62059e-022 1.05233 -9.94675 6.08845 -75.1949 -2.2351 -99.7552 -3.97392 -19.6196 -11.6895 1.49079e-006 14.9982 -2.81617e-006 6.17947e-031 -5.56597e-015 6.36111e-015 7.95139e-016 -5.56597e-015 3.18055e-015 -0 -3.18055e-015 -0 6.17947e-031 -5.56597e-015 6.36111e-015 -0.0145977 -9.12539e-005 3.85617e-006 -0 0 3.18055e-015 6.17947e-031 -5.56597e-015 6.36111e-015 -0.018737 -0.00117396 5.78433e-005 -7.95139e-016 -7.95139e-016 -0 6.17947e-031 -5.56597e-015 6.36111e-015 -0.0122855 -0.0032526 0.000681747 -7.95139e-016 0 -0 6.17947e-031 -5.56597e-015 6.36111e-015 7.95139e-016 -5.56597e-015 3.18055e-015 -0 -3.18055e-015 -0 -1.05617 -9.94653 -6.09229 75.1921 -2.24163 99.751 -6.07574 19.0911 18.0217 1.18447e-005 -29.0006 1.12125e-005 -1.59028e-015 -1.59028e-015 6.36111e-015 -6.62848e-007 -1.33855e-006 -3.23083e-006 -5.47487e-008 -8.27411e-007 9.21284e-007 -1.59028e-015 -1.59028e-015 6.36111e-015 0.0149942 -9.05808e-005 4.15629e-006 -5.61518e-008 -8.27282e-007 9.21392e-007 -1.59028e-015 -1.59028e-015 6.36111e-015 0.0190068 -0.00119481 -6.27734e-005 -0 -7.95139e-016 -0 -1.59028e-015 -1.59028e-015 6.36111e-015 0.0122756 -0.00324934 -0.000676489 7.95139e-016 7.95139e-016 6.36111e-015 -1.59028e-015 -1.59028e-015 6.36111e-015 -6.62848e-007 -1.33855e-006 -3.23083e-006 -5.47487e-008 -8.27411e-007 9.21284e-007 -30.4107 -55.8396 -7.80096 179.892 34.7961 172.085 3.36833 60.854 -7.29649 1.80131e-007 2.52611e-007 7.92851e-007 30.4018 -55.8395 7.79257 -179.892 34.7963 -172.085 -3.36858 60.8533 7.29673 3.29886e-006 1.33083e-006 -2.15337e-007 
5.38424e-005 5.98085 -12.6843 0 3.99975 -0 2.53022e-014 15.8455 1.87628e-015 7.65402e-022 31.6909 1.59234e-022 8.34134e-022 31.6909 -3.66695e-022 -2.48564e-021 -27.0002 -3.00902e-020 0.0549264 -12.2983 -0.471262 1.05233 -9.94675 6.08845 -75.2132 -2.33735 -100.208 -3.94889 -19.3403 -11.8165 6.40905e-006 14.9982 1.82788e-007 -2.38542e-015 -7.95139e-016 1.27222e-014 7.95139e-016 0 -6.36111e-015 7.95139e-016 3.97569e-015 -0 -2.38542e-015 -7.95139e-016 1.27222e-014 -0.0145981 -8.74057e-005 -1.85079e-006 -1.59028e-015 -4.77083e-015 9.54166e-015 -2.38542e-015 -7.95139e-016 1.27222e-014 -0.0187284 -0.00117487 6.01226e-005 7.95139e-016 -1.59028e-015 9.54166e-015 -2.38542e-015 -7.95139e-016 1.27222e-014 -0.0122131 -0.00323367 0.000675266 -0 0 1.59028e-014 -2.38542e-015 -7.95139e-016 1.27222e-014 7.95139e-016 0 -6.36111e-015 7.95139e-016 3.97569e-015 -0 -1.05617 -9.94653 -6.09229 75.2103 -2.34418 100.203 -6.07574 19.0911 18.0217 -0.116148 -28.1523 0.0342086 -5.40986e-007 -1.1569e-006 1.07691e-006 -2.38542e-015 0 3.18055e-015 -5.40986e-007 -1.1569e-006 1.07691e-006 -5.40986e-007 -1.1569e-006 1.07691e-006 0.0150101 -9.17937e-005 2.05049e-006 -5.41032e-007 -1.15676e-006 1.07706e-006 -5.40986e-007 -1.1569e-006 1.07691e-006 0.018992 -0.00119098 -6.05511e-005 -5.41033e-007 -1.15672e-006 1.07711e-006 -5.40986e-007 -1.1569e-006 1.07691e-006 0.0122963 -0.00325588 -0.00067823 -5.97284e-007 -2.06667e-006 1.96725e-006 -5.40986e-007 -1.1569e-006 1.07691e-006 -2.38542e-015 0 3.18055e-015 -5.40986e-007 -1.1569e-006 1.07691e-006 -30.4107 -55.8396 -7.80096 179.892 34.7961 172.085 3.36833 60.854 -7.29649 1.80131e-007 2.52611e-007 7.92851e-007 30.4018 -55.8395 7.79257 -179.892 34.7963 -172.085 -3.36858 60.8533 7.29673 3.29886e-006 1.33083e-006 -2.15337e-007 
5.38351e-005 5.98085 -12.6843 0 3.99975 -0 -7.61631e-015 15.892 -5.64983e-016 -2.35701e-022 31.7839 -1.74317e-022 2.7509e-022 31.7839 6.27171e-023 5.68316e-021 -27.0003 6.37495e-021 0.107465 -12.596 -0.943255 1.05233 -9.94674 6.08845 -75.2325 -2.43954 -100.66 -3.92324 -19.061 -11.9435 -7.54218e-006 14.9982 2.22676e-006 5.28548e-007 6.65982e-008 3.3076e-007 -3.18055e-015 -1.59028e-015 2.22639e-014 -2.38542e-015 -3.18055e-015 1.27222e-014 5.28548e-007 6.65982e-008 3.3076e-007 -0.0145987 -8.86535e-005 4.93688e-006 5.27227e-007 6.6548e-008 3.30768e-007 5.28548e-007 6.65982e-008 3.3076e-007 -0.0187713 -0.00117766 6.08438e-005 -0 -4.77083e-015 -0 5.28548e-007 6.65982e-008 3.3076e-007 -0.0122501 -0.0032411 0.000672319 1.59028e-015 -4.77083e-015 -1.59028e-014 5.28548e-007 6.65982e-008 3.3076e-007 -3.18055e-015 -1.59028e-015 2.22639e-014 -2.38542e-015 -3.18055e-015 1.27222e-014 -1.05617 -9.94651 -6.09229 75.2296 -2.44671 100.655 -6.07575 19.0911 18.0217 -0.232199 -27.302 0.0701879 -7.95139e-016 -3.18055e-015 -3.18055e-015 -5.52189e-007 -1.15899e-006 1.07072e-006 1.59028e-015 -7.95139e-016 9.54166e-015 -7.95139e-016 -3.18055e-015 -3.18055e-015 0.015032 -9.26678e-005 5.58495e-007 -1.59028e-015 7.95139e-016 -6.36111e-015 -7.95139e-016 -3.18055e-015 -3.18055e-015 0.0189978 -0.00119297 -6.24728e-005 -3.53113e-031 -1.59028e-015 -1.27222e-014 -7.95139e-016 -3.18055e-015 -3.18055e-015 0.0122522 -0.00324448 -0.000674681 -1.59028e-015 -7.95139e-016 9.54166e-015 -7.95139e-016 -3.18055e-015 -3.18055e-015 -5.52189e-007 -1.15899e-006 1.07072e-006 1.59028e-015 -7.95139e-016 9.54166e-015 -30.4107 -55.8396 -7.80096 179.892 34.7961 172.085 3.36833 60.854 -7.29649 1.80131e-007 2.52611e-007 7.92851e-007 30.4018 -55.8395 7.79255 -179.892 34.7963 -172.085 -3.36856 60.8533 7.29672 2.32819e-007 -2.09089e-006 1.08053e-006 
5.38351e-005 5.98085 -12.6843 0 3.99975 -0 8.36975e-015 15.9385 6.21012e-016 3.69351e-022 31.8768 -1.07345e-022 -4.40785e-022 31.8768 -1.32979e-022 -5.61328e-021 -27.0003 2.20748e-021 0.157594 -12.8944 -1.41598 1.05233 -9.94676 6.08845 -75.2525 -2.54166 -101.114 -3.89701 -18.7817 -12.0705 -1.39466e-005 14.9982 3.83761e-006 -3.18055e-015 1.59028e-015 -6.36111e-015 -3.18055e-015 4.77083e-015 3.18055e-015 -2.38542e-015 4.77083e-015 9.54166e-015 -3.18055e-015 1.59028e-015 -6.36111e-015 -0.0146039 -8.78713e-005 4.11231e-006 -7.95139e-016 1.59028e-015 -9.54166e-015 -3.18055e-015 1.59028e-015 -6.36111e-015 -0.0187543 -0.00117368 5.7174e-005 0 1.59028e-015 -0 -3.18055e-015 1.59028e-015 -6.36111e-015 -0.0123006 -0.00325716 0.000675086 -2.38542e-015 -4.77083e-015 -0 -3.18055e-015 1.59028e-015 -6.36111e-015 -3.18055e-015 4.77083e-015 3.18055e-015 -2.38542e-015 4.77083e-015 9.54166e-015 -1.05617 -9.94652 -6.09229 75.2495 -2.54908 101.108 -6.07573 19.0911 18.0217 -0.348253 -26.4498 0.107922 3.53113e-031 -3.18055e-015 6.36111e-015 -7.95139e-016 -7.95139e-016 -0 7.95139e-016 -1.59028e-015 -0 3.53113e-031 -3.18055e-015 6.36111e-015 0.0150077 -9.2847e-005 3.43839e-006 -5.64848e-008 -1.07621e-006 8.27234e-007 3.53113e-031 -3.18055e-015 6.36111e-015 0.0190055 -0.00119412 -6.52075e-005 7.95139e-016 -7.95139e-016 -3.18055e-015 3.53113e-031 -3.18055e-015 6.36111e-015 0.0122242 -0.00323458 -0.00067634 -7.95139e-016 1.59028e-015 -3.18055e-015 3.53113e-031 -3.18055e-015 6.36111e-015 -7.95139e-016 -7.95139e-016 -0 7.95139e-016 -1.59028e-015 -0 -30.4107 -55.8397 -7.80097 179.892 34.7961 172.085 3.36832 60.854 -7.29649 3.60262e-007 5.05222e-007 1.5857e-006 30.4018 -55.8395 7.79257 -179.892 34.7963 -172.085 -3.36854 60.8533 7.29671 -1.23029e-006 -2.63178e-006 -1.2867e-006 
5.38424e-005 5.98085 -12.6843 0 3.99975 -0 8.39816e-015 15.9849 6.23295e-016 3.53913e-023 31.9698 1.62192e-022 5.06838e-022 31.9698 -6.3464e-022 3.88434e-020 -27.0001 1.15609e-020 0.205296 -13.1935 -1.88945 1.05233 -9.94676 6.08845 -75.2733 -2.64365 -101.567 -3.87012 -18.5024 -12.1974 9.83025e-006 14.9982 -6.53411e-006 -0 0 3.18055e-015 -1.59028e-015 0 -3.18055e-015 -7.95139e-016 0 -3.18055e-015 -0 0 3.18055e-015 -0.0146082 -8.95115e-005 1.0977e-006 -2.38542e-015 -3.18055e-015 1.27222e-014 -0 0 3.18055e-015 -0.0187419 -0.00117614 5.9163e-005 3.18055e-015 0 -6.36111e-015 -0 0 3.18055e-015 -0.0122858 -0.00325608 0.000680781 -7.95139e-016 3.18055e-015 -9.54166e-015 -0 0 3.18055e-015 -1.59028e-015 0 -3.18055e-015 -7.95139e-016 0 -3.18055e-015 -1.05616 -9.94653 -6.09229 75.2704 -2.65141 101.561 -6.07574 19.0911 18.0217 -0.464337 -25.5959 0.147362 5.74502e-007 1.16303e-006 -1.05799e-006 5.74502e-007 1.16303e-006 -1.05799e-006 5.74502e-007 1.16303e-006 -1.05799e-006 5.74502e-007 1.16303e-006 -1.05799e-006 0.0149913 -9.05782e-005 5.35856e-007 5.74546e-007 1.16289e-006 -1.05815e-006 5.74502e-007 1.16303e-006 -1.05799e-006 0.0189804 -0.00118604 -6.13258e-005 5.74547e-007 1.16285e-006 -1.05819e-006 5.74502e-007 1.16303e-006 -1.05799e-006 0.0122909 -0.00325389 -0.00068444 5.74501e-007 1.16291e-006 -1.05814e-006 5.74502e-007 1.16303e-006 -1.05799e-006 5.74502e-007 1.16303e-006 -1.05799e-006 5.74502e-007 1.16303e-006 -1.05799e-006 -30.4107 -55.8397 -7.80098 179.892 34.796 172.085 3.36832 60.854 -7.29648 5.27514e-008 1.83831e-006 2.87629e-007 30.4018 -55.8396 7.79255 -179.892 34.7963 -172.085 -3.36853 60.8534 7.29669 -9.2272e-007 -1.29866e-006 1.13366e-008 
5.38424e-005 5.98085 -12.6843 0 3.99975 -0 6.77798e-015 16.0314 5.03184e-016 -1.89431e-022 32.0628 1.22344e-022 -7.1883e-022 32.0628 -8.00109e-023 -1.46752e-020 -27.0004 4.97574e-021 0.250553 -13.4932 -2.36367 1.05233 -9.94676 6.08845 -75.2949 -2.74553 -102.021 -3.84265 -18.223 -12.3242 -7.5112e-006 14.9982 1.25512e-006 2.38542e-015 0 -1.27222e-014 2.38542e-015 0 -9.54166e-015 3.97569e-015 3.18055e-015 -9.54166e-015 2.38542e-015 0 -1.27222e-014 -0.0146075 -9.02353e-005 -4.08317e-006 -1.59028e-015 -3.18055e-015 -6.36111e-015 2.38542e-015 0 -1.27222e-014 -0.0187352 -0.00117274 5.69677e-005 1.59028e-015 -3.18055e-015 6.36111e-015 2.38542e-015 0 -1.27222e-014 -0.0122192 -0.0032342 0.000672074 1.59028e-015 -1.59028e-015 -3.18055e-015 2.38542e-015 0 -1.27222e-014 2.38542e-015 0 -9.54166e-015 3.97569e-015 3.18055e-015 -9.54166e-015 -1.05617 -9.94654 -6.09229 75.2919 -2.75359 102.015 -6.07574 19.0911 18.0217 -0.58048 -24.7403 0.188529 -5.85608e-007 -1.16498e-006 1.05146e-006 -5.85608e-007 -1.16498e-006 1.05146e-006 -5.85608e-007 -1.16498e-006 1.05146e-006 -5.85608e-007 -1.16498e-006 1.05146e-006 0.0150161 -9.3923e-005 -2.65119e-006 -5.30549e-007 7.76913e-008 2.87833e-007 -5.85608e-007 -1.16498e-006 1.05146e-006 0.0190043 -0.00119239 -6.48445e-005 -5.85651e-007 -1.16481e-006 1.05166e-006 -5.85608e-007 -1.16498e-006 1.05146e-006 0.0122915 -0.0032524 -0.000677223 -5.85607e-007 -1.16486e-006 1.0516e-006 -5.85608e-007 -1.16498e-006 1.05146e-006 -5.85608e-007 -1.16498e-006 1.05146e-006 -5.85608e-007 -1.16498e-006 1.05146e-006 -30.4107 -55.8396 -7.80096 179.892 34.7961 172.085 3.36833 60.854 -7.29649 1.80131e-007 2.52611e-007 7.92851e-007 30.4018 -55.8395 7.79257 -179.892 34.7963 -172.085 -3.36858 60.8533 7.29673 3.29886e-006 1.33083e-006 -2.15337e-007 
